<svg width="230" height="50" viewBox="0 0 230 50" fill="none" xmlns="http://www.w3.org/2000/svg">
<rect x="4" y="10" width="31" height="31" rx="5" fill="#8257E5"/>
<path d="M31.71 14.94V36H26.58V23.37L21.87 36H17.73L12.99 23.34V36H7.86V14.94H13.92L19.83 29.52L25.68 14.94H31.71ZM53.4291 27.36C53.4291 27.84 53.3991 28.34 53.3391 28.86H41.7291C41.8091 29.9 42.1391 30.7 42.7191 31.26C43.3191 31.8 44.0491 32.07 44.9091 32.07C46.1891 32.07 47.0791 31.53 47.5791 30.45H53.0391C52.7591 31.55 52.2491 32.54 51.5091 33.42C50.7891 34.3 49.8791 34.99 48.7791 35.49C47.6791 35.99 46.4491 36.24 45.0891 36.24C43.4491 36.24 41.9891 35.89 40.7091 35.19C39.4291 34.49 38.4291 33.49 37.7091 32.19C36.9891 30.89 36.6291 29.37 36.6291 27.63C36.6291 25.89 36.9791 24.37 37.6791 23.07C38.3991 21.77 39.3991 20.77 40.6791 20.07C41.9591 19.37 43.4291 19.02 45.0891 19.02C46.7091 19.02 48.1491 19.36 49.4091 20.04C50.6691 20.72 51.6491 21.69 52.3491 22.95C53.0691 24.21 53.4291 25.68 53.4291 27.36ZM48.1791 26.01C48.1791 25.13 47.8791 24.43 47.2791 23.91C46.6791 23.39 45.9291 23.13 45.0291 23.13C44.1691 23.13 43.4391 23.38 42.8391 23.88C42.2591 24.38 41.8991 25.09 41.7591 26.01H48.1791ZM72.1228 14.94V36H66.9928V14.94H72.1228ZM88.2905 19.08C90.2505 19.08 91.8105 19.72 92.9705 21C94.1505 22.26 94.7405 24 94.7405 26.22V36H89.6405V26.91C89.6405 25.79 89.3505 24.92 88.7705 24.3C88.1905 23.68 87.4105 23.37 86.4305 23.37C85.4505 23.37 84.6705 23.68 84.0905 24.3C83.5105 24.92 83.2205 25.79 83.2205 26.91V36H78.0905V19.26H83.2205V21.48C83.7405 20.74 84.4405 20.16 85.3205 19.74C86.2005 19.3 87.1905 19.08 88.2905 19.08ZM99.5353 27.6C99.5353 25.88 99.8553 24.37 100.495 23.07C101.155 21.77 102.045 20.77 103.165 20.07C104.285 19.37 105.535 19.02 106.915 19.02C108.015 19.02 109.015 19.25 109.915 19.71C110.835 20.17 111.555 20.79 112.075 21.57V13.8H117.205V36H112.075V33.6C111.595 34.4 110.905 35.04 110.005 35.52C109.125 36 108.095 36.24 106.915 36.24C105.535 36.24 104.285 35.89 103.165 35.19C102.045 34.47 101.155 33.46 100.495 32.16C99.8553 30.84 99.5353 29.32 99.5353 27.6ZM112.075 27.63C112.075 26.35 111.715 25.34 110.995 24.6C110.295 23.86 109.435 23.49 108.415 23.49C107.395 23.49 106.525 23.86 105.805 24.6C105.105 25.32 104.755 26.32 104.755 27.6C104.755 28.88 105.105 29.9 105.805 30.66C106.525 31.4 107.395 31.77 108.415 31.77C109.435 31.77 110.295 31.4 110.995 30.66C111.715 29.92 112.075 28.91 112.075 27.63ZM125.747 17.52C124.847 17.52 124.107 17.26 123.527 16.74C122.967 16.2 122.687 15.54 122.687 14.76C122.687 13.96 122.967 13.3 123.527 12.78C124.107 12.24 124.847 11.97 125.747 11.97C126.627 11.97 127.347 12.24 127.907 12.78C128.487 13.3 128.777 13.96 128.777 14.76C128.777 15.54 128.487 16.2 127.907 16.74C127.347 17.26 126.627 17.52 125.747 17.52ZM128.297 19.26V36H123.167V19.26H128.297ZM133.244 27.63C133.244 25.89 133.594 24.37 134.294 23.07C135.014 21.77 136.004 20.77 137.264 20.07C138.544 19.37 140.004 19.02 141.644 19.02C143.744 19.02 145.494 19.57 146.894 20.67C148.314 21.77 149.244 23.32 149.684 25.32H144.224C143.764 24.04 142.874 23.4 141.554 23.4C140.614 23.4 139.864 23.77 139.304 24.51C138.744 25.23 138.464 26.27 138.464 27.63C138.464 28.99 138.744 30.04 139.304 30.78C139.864 31.5 140.614 31.86 141.554 31.86C142.874 31.86 143.764 31.22 144.224 29.94H149.684C149.244 31.9 148.314 33.44 146.894 34.56C145.474 35.68 143.724 36.24 141.644 36.24C140.004 36.24 138.544 35.89 137.264 35.19C136.004 34.49 135.014 33.49 134.294 32.19C133.594 30.89 133.244 29.37 133.244 27.63ZM153.658 27.6C153.658 25.88 153.978 24.37 154.618 23.07C155.278 21.77 156.168 20.77 157.288 20.07C158.408 19.37 159.658 19.02 161.038 19.02C162.218 19.02 163.248 19.26 164.128 19.74C165.028 20.22 165.718 20.85 166.198 21.63V19.26H171.328V36H166.198V33.63C165.698 34.41 164.998 35.04 164.098 35.52C163.218 36 162.188 36.24 161.008 36.24C159.648 36.24 158.408 35.89 157.288 35.19C156.168 34.47 155.278 33.46 154.618 32.16C153.978 30.84 153.658 29.32 153.658 27.6ZM166.198 27.63C166.198 26.35 165.838 25.34 165.118 24.6C164.418 23.86 163.558 23.49 162.538 23.49C161.518 23.49 160.648 23.86 159.928 24.6C159.228 25.32 158.878 26.32 158.878 27.6C158.878 28.88 159.228 29.9 159.928 30.66C160.648 31.4 161.518 31.77 162.538 31.77C163.558 31.77 164.418 31.4 165.118 30.66C165.838 29.92 166.198 28.91 166.198 27.63ZM199.007 32.28H191.147L189.887 36H184.517L192.137 14.94H198.077L205.697 36H200.267L199.007 32.28ZM197.687 28.32L195.077 20.61L192.497 28.32H197.687ZM212.846 17.52C211.946 17.52 211.206 17.26 210.626 16.74C210.066 16.2 209.786 15.54 209.786 14.76C209.786 13.96 210.066 13.3 210.626 12.78C211.206 12.24 211.946 11.97 212.846 11.97C213.726 11.97 214.446 12.24 215.006 12.78C215.586 13.3 215.876 13.96 215.876 14.76C215.876 15.54 215.586 16.2 215.006 16.74C214.446 17.26 213.726 17.52 212.846 17.52ZM215.396 19.26V36H210.266V19.26H215.396Z" fill="#F8F8F8"/>
<circle cx="212.5" cy="14.5" r="3.5" fill="#F5DD00"/>
<circle cx="125.5" cy="14.5" r="3.5" fill="#F5DD00"/>
<rect x="1" y="1" width="228" height="48" stroke="#F8F8F8" stroke-width="2"/>
</svg>
