<svg width="173" height="64" viewBox="0 0 173 64" fill="none" xmlns="http://www.w3.org/2000/svg">
<rect y="9" width="54" height="42" rx="5" fill="#8257E5"/>
<path d="M19.768 23.168C21.848 22.08 23.88 21.536 25.864 21.536C27.88 21.536 29.432 22.048 30.52 23.072C31.64 24.064 32.2 25.568 32.2 27.584V50H24.856V29.36C24.856 28.592 24.424 28.208 23.56 28.208C22.728 28.208 21.96 28.416 21.256 28.832C21.288 28.896 21.304 29.056 21.304 29.312V50H13.96V29.36C13.96 28.592 13.544 28.208 12.712 28.208C11.88 28.208 11.112 28.416 10.408 28.832V50H3.16V21.68H9.976V22.928C11.672 22 13.448 21.536 15.304 21.536C17.192 21.536 18.68 22.08 19.768 23.168ZM33.4206 41.936V28.928C33.4206 26.496 34.1726 24.608 35.6766 23.264C37.1806 21.888 39.4526 21.2 42.4926 21.2C48.3486 21.2 51.2766 23.776 51.2766 28.928V38.672H40.3806V41.36C40.3806 42.32 40.6366 43.008 41.1486 43.424C41.6926 43.808 42.8606 44 44.6526 44C46.4766 44 48.4606 43.68 50.6046 43.04V49.376C48.3646 49.984 45.9646 50.288 43.4046 50.288C36.7486 50.288 33.4206 47.504 33.4206 41.936ZM40.3806 33.152H44.6046V29.024C44.6046 27.808 43.9006 27.2 42.4926 27.2C41.0846 27.2 40.3806 27.808 40.3806 29.024V33.152Z" fill="white"/>
<path d="M59.4346 17.7207C58.4775 17.7207 57.7188 17.4336 57.1582 16.8594C56.6113 16.2852 56.3379 15.4443 56.3379 14.3369C56.3379 13.7217 56.4062 13.209 56.543 12.7988C56.6934 12.375 56.8984 12.04 57.1582 11.7939C57.4316 11.5342 57.7598 11.3496 58.1426 11.2402C58.5254 11.1172 58.9629 11.0557 59.4551 11.0557C60.4805 11.0557 61.2598 11.3154 61.793 11.835C62.3262 12.3545 62.5928 13.1885 62.5928 14.3369C62.5928 15.4033 62.3193 16.2373 61.7725 16.8389C61.2393 17.4268 60.46 17.7207 59.4346 17.7207ZM56.748 21.7607H61.9365V50H56.748V21.7607ZM65.6911 21.7607H69.6901L70.1618 24.7754V24.7959C70.572 24.1533 71.0095 23.6201 71.4743 23.1963C71.9528 22.7588 72.445 22.4102 72.9509 22.1504C73.4567 21.8906 73.9694 21.7061 74.4889 21.5967C75.0221 21.4873 75.5485 21.4326 76.068 21.4326C77.7223 21.4326 78.9938 22.0137 79.8825 23.1758C80.7848 24.3242 81.236 26.0537 81.236 28.3643V50H76.0475V28.5488C76.0475 27.3047 75.8561 26.4434 75.4733 25.9648C75.0905 25.4727 74.53 25.2266 73.7917 25.2266C73.2721 25.2266 72.7526 25.3975 72.2331 25.7393C71.7272 26.0811 71.2761 26.5527 70.8796 27.1543V50H65.6911V21.7607ZM90.3431 50.3281C90.0287 50.3281 89.6595 50.2939 89.2357 50.2256C88.8119 50.1709 88.3744 50.0342 87.9232 49.8154C87.472 49.5967 87.0277 49.2686 86.5902 48.8311C86.1527 48.3936 85.763 47.7988 85.4212 47.0469C85.0795 46.2812 84.7992 45.3379 84.5804 44.2168C84.3754 43.0957 84.2728 41.7354 84.2728 40.1357V31.1738C84.2728 29.5879 84.3822 28.248 84.6009 27.1543C84.8334 26.0605 85.1341 25.1582 85.5033 24.4473C85.8724 23.7227 86.2826 23.1621 86.7337 22.7656C87.1986 22.3555 87.6566 22.0547 88.1078 21.8633C88.5726 21.6719 89.0101 21.5557 89.4203 21.5146C89.8441 21.4736 90.1927 21.4531 90.4662 21.4531C90.972 21.4531 91.4505 21.5215 91.9017 21.6582C92.3529 21.7949 92.763 21.9795 93.1322 22.2119C93.5013 22.4307 93.8295 22.6836 94.1166 22.9707C94.4037 23.2441 94.6429 23.5244 94.8343 23.8115L94.8548 23.791L94.6908 20.2227V12.6963H99.8587V50H95.8187L95.3675 47.375C95.1351 47.7441 94.8685 48.1064 94.5677 48.4619C94.267 48.8174 93.9115 49.1387 93.5013 49.4258C93.0912 49.6992 92.6263 49.918 92.1068 50.082C91.5873 50.2461 90.9994 50.3281 90.3431 50.3281ZM92.1068 46.3086C92.4486 46.3086 92.7494 46.2539 93.0091 46.1445C93.2826 46.0215 93.5218 45.8711 93.7269 45.6934C93.9457 45.502 94.1302 45.2832 94.2806 45.0371C94.4447 44.791 94.5814 44.5381 94.6908 44.2783V27.2979C94.431 26.7236 94.0824 26.2383 93.6449 25.8418C93.2211 25.4316 92.7015 25.2266 92.0863 25.2266C91.7035 25.2266 91.3548 25.2949 91.0404 25.4316C90.7259 25.5684 90.4525 25.8281 90.2201 26.2109C89.9877 26.5801 89.8031 27.0996 89.6664 27.7695C89.5433 28.4258 89.4818 29.2803 89.4818 30.333V41.1611C89.4818 42.2139 89.5433 43.0752 89.6664 43.7451C89.8031 44.415 89.9877 44.9414 90.2201 45.3242C90.4525 45.6934 90.7259 45.9531 91.0404 46.1035C91.3685 46.2402 91.724 46.3086 92.1068 46.3086ZM106.279 17.7207C105.322 17.7207 104.564 17.4336 104.003 16.8594C103.456 16.2852 103.183 15.4443 103.183 14.3369C103.183 13.7217 103.251 13.209 103.388 12.7988C103.538 12.375 103.743 12.04 104.003 11.7939C104.276 11.5342 104.605 11.3496 104.987 11.2402C105.37 11.1172 105.808 11.0557 106.3 11.0557C107.325 11.0557 108.105 11.3154 108.638 11.835C109.171 12.3545 109.438 13.1885 109.438 14.3369C109.438 15.4033 109.164 16.2373 108.617 16.8389C108.084 17.4268 107.305 17.7207 106.279 17.7207ZM103.593 21.7607H108.781V50H103.593V21.7607ZM119.119 50.3076C116.74 50.3076 114.922 49.3301 113.664 47.375C112.42 45.4199 111.798 42.4395 111.798 38.4336V33.1016C111.798 31.3105 111.927 29.7793 112.187 28.5078C112.447 27.2227 112.789 26.1494 113.213 25.2881C113.65 24.4131 114.142 23.7227 114.689 23.2168C115.25 22.7109 115.824 22.3281 116.412 22.0684C117 21.7949 117.581 21.624 118.155 21.5557C118.729 21.4736 119.256 21.4326 119.734 21.4326C120.691 21.4326 121.566 21.5625 122.359 21.8223C123.152 22.0684 123.836 22.4512 124.41 22.9707C124.984 23.4766 125.428 24.1191 125.743 24.8984C126.057 25.6777 126.215 26.5938 126.215 27.6465C126.215 28.3027 126.18 28.8701 126.112 29.3486C126.057 29.8135 125.975 30.2646 125.866 30.7021H121.723V29.7588C121.723 28.3369 121.552 27.2295 121.211 26.4365C120.883 25.6299 120.336 25.2266 119.57 25.2266C119.146 25.2266 118.777 25.3291 118.463 25.5342C118.148 25.7256 117.882 26.0605 117.663 26.5391C117.458 27.0176 117.301 27.6602 117.191 28.4668C117.095 29.2734 117.048 30.2852 117.048 31.502V39.5205C117.048 40.751 117.089 41.7969 117.171 42.6582C117.253 43.5195 117.396 44.2236 117.601 44.7705C117.806 45.3037 118.08 45.6934 118.422 45.9395C118.763 46.1855 119.187 46.3086 119.693 46.3086C119.953 46.3086 120.206 46.2471 120.452 46.124C120.698 45.9873 120.91 45.7686 121.088 45.4678C121.279 45.167 121.429 44.7705 121.539 44.2783C121.662 43.7725 121.723 43.1504 121.723 42.4121V41.5303H126.194V42.6172C126.194 45.2969 125.599 47.252 124.41 48.4824C123.234 49.6992 121.47 50.3076 119.119 50.3076ZM132.635 50.3076C131.76 50.3076 130.981 50.1367 130.297 49.7949C129.627 49.4395 129.06 48.9609 128.595 48.3594C128.13 47.7578 127.775 47.0469 127.529 46.2266C127.296 45.3926 127.18 44.4902 127.18 43.5195C127.18 42.3574 127.324 41.3252 127.611 40.4229C127.898 39.5205 128.315 38.707 128.862 37.9824C129.422 37.2578 130.113 36.6016 130.933 36.0137C131.753 35.4121 132.704 34.8447 133.784 34.3115C134.303 34.0518 134.884 33.792 135.527 33.5322C136.183 33.2588 136.764 33.0264 137.27 32.835V29.1025C137.27 28.5557 137.249 28.0498 137.208 27.585C137.167 27.1064 137.065 26.6963 136.901 26.3545C136.75 25.999 136.518 25.7256 136.204 25.5342C135.889 25.3291 135.458 25.2266 134.912 25.2266C134.542 25.2266 134.18 25.2949 133.825 25.4316C133.483 25.5684 133.175 25.8008 132.902 26.1289C132.642 26.457 132.43 26.8945 132.266 27.4414C132.116 27.9883 132.04 28.665 132.04 29.4717V30.7021H128.082C127.959 30.1689 127.864 29.6836 127.795 29.2461C127.741 28.7949 127.713 28.3506 127.713 27.9131C127.713 26.8604 127.891 25.9307 128.246 25.124C128.616 24.3174 129.121 23.6406 129.764 23.0938C130.42 22.5469 131.2 22.1367 132.102 21.8633C133.004 21.5762 133.996 21.4326 135.076 21.4326C136.484 21.4326 137.653 21.5898 138.582 21.9043C139.512 22.2051 140.25 22.6631 140.797 23.2783C141.358 23.8936 141.747 24.666 141.966 25.5957C142.199 26.5254 142.315 27.6123 142.315 28.8564V50H138.459L138.09 47.5801C137.53 48.3867 136.778 49.043 135.834 49.5488C134.905 50.0547 133.838 50.3076 132.635 50.3076ZM134.932 46.3086C135.37 46.3086 135.793 46.1992 136.204 45.9805C136.627 45.748 136.983 45.4678 137.27 45.1396V36.3008C136.996 36.4102 136.689 36.54 136.347 36.6904C136.005 36.8408 135.636 37.0391 135.24 37.2852C134.871 37.5176 134.508 37.7979 134.153 38.126C133.797 38.4541 133.476 38.8438 133.189 39.2949C132.915 39.7461 132.69 40.2588 132.512 40.833C132.348 41.3936 132.266 42.0225 132.266 42.7197C132.266 43.7998 132.478 44.668 132.902 45.3242C133.326 45.9805 134.002 46.3086 134.932 46.3086Z" fill="white"/>
<path d="M149.904 50.3076C149.029 50.3076 148.25 50.1367 147.566 49.7949C146.897 49.4395 146.329 48.9609 145.864 48.3594C145.399 47.7578 145.044 47.0469 144.798 46.2266C144.566 45.3926 144.449 44.4902 144.449 43.5195C144.449 42.3574 144.593 41.3252 144.88 40.4229C145.167 39.5205 145.584 38.707 146.131 37.9824C146.691 37.2578 147.382 36.6016 148.202 36.0137C149.023 35.4121 149.973 34.8447 151.053 34.3115C151.572 34.0518 152.153 33.792 152.796 33.5322C153.452 33.2588 154.033 33.0264 154.539 32.835V29.1025C154.539 28.5557 154.519 28.0498 154.478 27.585C154.437 27.1064 154.334 26.6963 154.17 26.3545C154.02 25.999 153.787 25.7256 153.473 25.5342C153.158 25.3291 152.728 25.2266 152.181 25.2266C151.812 25.2266 151.449 25.2949 151.094 25.4316C150.752 25.5684 150.444 25.8008 150.171 26.1289C149.911 26.457 149.699 26.8945 149.535 27.4414C149.385 27.9883 149.31 28.665 149.31 29.4717V30.7021H145.352C145.229 30.1689 145.133 29.6836 145.065 29.2461C145.01 28.7949 144.982 28.3506 144.982 27.9131C144.982 26.8604 145.16 25.9307 145.516 25.124C145.885 24.3174 146.391 23.6406 147.033 23.0938C147.69 22.5469 148.469 22.1367 149.371 21.8633C150.274 21.5762 151.265 21.4326 152.345 21.4326C153.753 21.4326 154.922 21.5898 155.852 21.9043C156.781 22.2051 157.52 22.6631 158.066 23.2783C158.627 23.8936 159.017 24.666 159.235 25.5957C159.468 26.5254 159.584 27.6123 159.584 28.8564V50H155.729L155.359 47.5801C154.799 48.3867 154.047 49.043 153.104 49.5488C152.174 50.0547 151.107 50.3076 149.904 50.3076ZM152.201 46.3086C152.639 46.3086 153.063 46.1992 153.473 45.9805C153.897 45.748 154.252 45.4678 154.539 45.1396V36.3008C154.266 36.4102 153.958 36.54 153.616 36.6904C153.274 36.8408 152.905 37.0391 152.509 37.2852C152.14 37.5176 151.777 37.7979 151.422 38.126C151.066 38.4541 150.745 38.8438 150.458 39.2949C150.185 39.7461 149.959 40.2588 149.781 40.833C149.617 41.3936 149.535 42.0225 149.535 42.7197C149.535 43.7998 149.747 44.668 150.171 45.3242C150.595 45.9805 151.272 46.3086 152.201 46.3086ZM163.359 21.7607H168.548V50H163.359V21.7607ZM163.4 17.8643L169.347 9.33301L172.813 12.1426L165.964 20.0176L163.4 17.8643Z" fill="#8257E5"/>
<ellipse cx="59.5" cy="14" rx="3.5" ry="4" fill="#8257E5"/>
<ellipse cx="106.5" cy="14" rx="3.5" ry="4" fill="#8257E5"/>
</svg>
